<svg width="181" height="57" viewBox="0 0 181 57" fill="none" xmlns="http://www.w3.org/2000/svg">
<path d="M43.1768 32.4825C45.9592 32.4825 48.1453 31.9855 49.7352 30.9914C51.3251 29.9974 52.9151 28.556 54.505 26.6672H54.654C54.9521 26.6672 55.2006 26.8163 55.3993 27.1146C55.6974 27.3134 55.7471 27.5122 55.5484 27.711C51.2755 33.9736 47.8472 38.1487 45.2636 40.2362C42.6799 42.3238 39.7982 43.3675 36.6184 43.3675C34.8297 43.3675 33.0907 43.1687 31.4014 42.7711C29.7122 42.2741 27.7744 41.5782 25.5883 40.6836C23.4022 39.7889 21.4148 39.0931 19.6261 38.596C17.9368 38.099 16.0985 37.8505 14.1111 37.8505C11.7262 37.8505 9.88784 38.1984 8.59603 38.8942C7.40359 39.5901 6.26083 40.4847 5.16776 41.5782C4.07469 42.5723 3.32942 43.2681 2.93194 43.6658H2.78288C2.58414 43.6658 2.33572 43.5663 2.03761 43.3675C1.83887 43.0693 1.78918 42.8208 1.88855 42.622C4.27343 38.5463 7.00611 34.9677 10.0866 31.8861C13.2664 28.7051 16.645 27.1146 20.2223 27.1146C21.6135 27.1146 23.1537 27.3631 24.843 27.8601C26.6317 28.3571 28.4203 28.9039 30.209 29.5003C35.575 31.4885 39.8976 32.4825 43.1768 32.4825Z" fill="#9142FF"/>
<path d="M50.9749 14.9173C53.7865 14.9173 55.9957 14.4203 57.6023 13.4262C59.209 12.4322 60.8156 10.9908 62.4223 9.10205H62.5729C62.8741 9.10205 63.1252 9.25116 63.326 9.54938C63.6273 9.74819 63.6775 9.94701 63.4766 10.1458C59.1588 16.4084 55.6944 20.5835 53.0836 22.671C50.4728 24.7586 47.5607 25.8023 44.3474 25.8023C42.5399 25.8023 40.7826 25.6035 39.0755 25.2059C37.3685 24.7089 35.4104 24.013 33.2012 23.1184C30.9921 22.2237 28.9837 21.5279 27.1763 21.0308C25.4692 20.5338 23.6115 20.2853 21.6032 20.2853C19.1932 20.2853 17.3355 20.6332 16.0301 21.3291C14.8251 22.0249 13.6703 22.9196 12.5657 24.013C11.4611 25.0071 10.708 25.7029 10.3064 26.1006H10.1557C9.9549 26.1006 9.70386 26.0012 9.40261 25.8023C9.20178 25.5041 9.15157 25.2556 9.25199 25.0568C11.662 20.9811 14.4234 17.4025 17.5363 14.3209C20.7496 11.1399 24.1638 9.54938 27.7787 9.54938C29.1846 9.54938 30.741 9.7979 32.4481 10.2949C34.2556 10.792 36.0631 11.3387 37.8706 11.9351C43.293 13.9233 47.6611 14.9173 50.9749 14.9173Z" fill="#9142FF"/>
<path d="M84.1579 47.4989C82.9468 47.4989 81.8222 47.2826 80.7841 46.8501C79.7676 46.3959 78.9458 45.7363 78.3186 44.8712L78.7728 43.8656V47.1096H74.2311V22.5521H79.0972V32.7709L78.3511 31.7977C78.935 30.911 79.7244 30.2297 80.7192 29.7539C81.7357 29.2565 82.8927 29.0078 84.1904 29.0078C85.8773 29.0078 87.402 29.4187 88.7645 30.2405C90.127 31.0624 91.2083 32.1761 92.0085 33.5819C92.8087 34.966 93.2088 36.5232 93.2088 38.2533C93.2088 39.9619 92.8087 41.519 92.0085 42.9248C91.23 44.3305 90.1594 45.4443 88.7969 46.2662C87.4344 47.088 85.8881 47.4989 84.1579 47.4989ZM83.574 43.1194C84.4823 43.1194 85.2825 42.914 85.9746 42.5031C86.6667 42.0921 87.2073 41.519 87.5966 40.7837C87.9859 40.0484 88.1805 39.2049 88.1805 38.2533C88.1805 37.3018 87.9859 36.4691 87.5966 35.7554C87.2073 35.0201 86.6667 34.447 85.9746 34.0361C85.2825 33.6035 84.4823 33.3873 83.574 33.3873C82.7089 33.3873 81.9303 33.5927 81.2383 34.0036C80.5678 34.4145 80.038 34.9877 79.6487 35.723C79.281 36.4583 79.0972 37.3018 79.0972 38.2533C79.0972 39.2049 79.281 40.0484 79.6487 40.7837C80.038 41.519 80.5678 42.0921 81.2383 42.5031C81.9303 42.914 82.7089 43.1194 83.574 43.1194ZM101.768 47.4989C100.341 47.4989 99.119 47.1961 98.1025 46.5906C97.1077 45.9634 96.3507 45.0983 95.8317 43.9953C95.3127 42.8923 95.0531 41.6055 95.0531 40.1349V29.3971H99.9192V39.7456C99.9192 40.4161 100.049 41.0108 100.308 41.5298C100.59 42.0273 100.979 42.4166 101.476 42.6977C101.974 42.9789 102.536 43.1194 103.163 43.1194C103.812 43.1194 104.374 42.9789 104.85 42.6977C105.348 42.4166 105.726 42.0273 105.986 41.5298C106.267 41.0108 106.407 40.4161 106.407 39.7456V29.3971H111.273V47.1096H106.732V43.606L106.991 44.3846C106.58 45.4443 105.91 46.2337 104.98 46.7528C104.072 47.2502 103.001 47.4989 101.768 47.4989ZM122.518 47.4989C120.788 47.4989 119.242 47.088 117.879 46.2662C116.517 45.4443 115.436 44.3305 114.635 42.9248C113.857 41.519 113.467 39.9619 113.467 38.2533C113.467 36.5232 113.868 34.966 114.668 33.5819C115.468 32.1761 116.549 31.0624 117.912 30.2405C119.274 29.4187 120.799 29.0078 122.486 29.0078C123.784 29.0078 124.93 29.2565 125.925 29.7539C126.941 30.2297 127.741 30.911 128.325 31.7977L127.579 32.7709V22.5521H132.445V47.1096H127.904V43.8656L128.358 44.8712C127.752 45.7363 126.93 46.3959 125.892 46.8501C124.854 47.2826 123.729 47.4989 122.518 47.4989ZM123.102 43.1194C123.989 43.1194 124.768 42.914 125.438 42.5031C126.108 42.0921 126.628 41.519 126.995 40.7837C127.384 40.0484 127.579 39.2049 127.579 38.2533C127.579 37.3018 127.384 36.4583 126.995 35.723C126.628 34.9877 126.108 34.4145 125.438 34.0036C124.768 33.5927 123.989 33.3873 123.102 33.3873C122.216 33.3873 121.415 33.6035 120.702 34.0361C120.01 34.447 119.469 35.0201 119.08 35.7554C118.69 36.4691 118.496 37.3018 118.496 38.2533C118.496 39.2049 118.69 40.0484 119.08 40.7837C119.469 41.519 120.01 42.0921 120.702 42.5031C121.415 42.914 122.216 43.1194 123.102 43.1194ZM143.697 47.4989C141.967 47.4989 140.421 47.088 139.058 46.2662C137.696 45.4443 136.614 44.3305 135.814 42.9248C135.036 41.519 134.646 39.9619 134.646 38.2533C134.646 36.5232 135.046 34.966 135.847 33.5819C136.647 32.1761 137.728 31.0624 139.091 30.2405C140.453 29.4187 141.978 29.0078 143.665 29.0078C144.962 29.0078 146.109 29.2565 147.103 29.7539C148.12 30.2297 148.92 30.911 149.504 31.7977L148.758 32.7709V22.5521H153.624V47.1096H149.082V43.8656L149.537 44.8712C148.931 45.7363 148.109 46.3959 147.071 46.8501C146.033 47.2826 144.908 47.4989 143.697 47.4989ZM144.281 43.1194C145.168 43.1194 145.946 42.914 146.617 42.5031C147.287 42.0921 147.806 41.519 148.174 40.7837C148.563 40.0484 148.758 39.2049 148.758 38.2533C148.758 37.3018 148.563 36.4583 148.174 35.723C147.806 34.9877 147.287 34.4145 146.617 34.0036C145.946 33.5927 145.168 33.3873 144.281 33.3873C143.394 33.3873 142.594 33.6035 141.881 34.0361C141.189 34.447 140.648 35.0201 140.259 35.7554C139.869 36.4691 139.675 37.3018 139.675 38.2533C139.675 39.2049 139.869 40.0484 140.259 40.7837C140.648 41.519 141.189 42.0921 141.881 42.5031C142.594 42.914 143.394 43.1194 144.281 43.1194ZM159.296 54.2465C158.777 54.2465 158.269 54.2033 157.772 54.1168C157.296 54.0303 156.874 53.8897 156.506 53.6951V49.7049C156.809 49.7914 157.166 49.8671 157.577 49.9319C157.988 49.9968 158.366 50.0293 158.712 50.0293C159.664 50.0293 160.345 49.8022 160.756 49.348C161.167 48.9155 161.502 48.4181 161.762 47.8558L162.962 45.0983L162.897 49.1534L155.112 29.3971H160.334L165.492 43.4438H163.546L168.704 29.3971H173.927L166.336 48.7641C165.86 49.9752 165.276 50.9917 164.584 51.8135C163.892 52.6353 163.103 53.2409 162.216 53.6302C161.351 54.0411 160.378 54.2465 159.296 54.2465Z" fill="#9142FF"/>
<path d="M79.4552 19.673C78.8585 19.673 78.3178 19.5489 77.833 19.3009C77.3482 19.0529 76.9877 18.7614 76.7515 18.4266V19.4683H74.1969V5.51611H76.7515V11.2086C76.9877 10.8738 77.3482 10.5823 77.833 10.3343C78.3178 10.0862 78.8585 9.96222 79.4552 9.96222C80.6859 9.96222 81.7239 10.4397 82.5692 11.3946C83.4145 12.3496 83.8371 13.4906 83.8371 14.8176C83.8371 16.1446 83.4145 17.2856 82.5692 18.2405C81.7239 19.1955 80.6859 19.673 79.4552 19.673ZM77.1803 16.6407C77.6154 17.1119 78.1873 17.3476 78.8958 17.3476C79.6044 17.3476 80.17 17.1119 80.5926 16.6407C81.0277 16.1694 81.2453 15.5617 81.2453 14.8176C81.2453 14.0735 81.0277 13.4658 80.5926 12.9945C80.17 12.5232 79.6044 12.2876 78.8958 12.2876C78.1873 12.2876 77.6154 12.5232 77.1803 12.9945C76.7577 13.4658 76.5464 14.0735 76.5464 14.8176C76.5464 15.5617 76.7577 16.1694 77.1803 16.6407Z" fill="#9142FF"/>
<path d="M85.7053 19.4683V10.1669H88.2599V11.6551C88.4215 11.1962 88.7136 10.818 89.1362 10.5203C89.5713 10.2103 90.0499 10.0552 90.572 10.0552C90.8952 10.0552 91.1811 10.0924 91.4298 10.1669V12.7527C91.0195 12.6162 90.6342 12.548 90.2737 12.548C89.6646 12.548 89.1735 12.7713 88.8006 13.2177C88.4401 13.6518 88.2599 14.2533 88.2599 15.0222V19.4683H85.7053Z" fill="#9142FF"/>
<path d="M97.0228 19.673C95.5933 19.673 94.4185 19.2141 93.4986 18.2963C92.5912 17.3786 92.1375 16.2128 92.1375 14.799C92.1375 13.41 92.5974 12.2566 93.5173 11.3388C94.4496 10.4211 95.6243 9.96222 97.0415 9.96222C98.4711 9.96222 99.6582 10.4521 100.603 11.4318C101.548 12.3992 101.983 13.7262 101.908 15.4129H94.6361C94.6858 15.9958 94.9282 16.4857 95.3633 16.8825C95.7984 17.267 96.3951 17.4592 97.1534 17.4592C97.6133 17.4592 98.0173 17.3724 98.3654 17.1988C98.7259 17.0127 98.9807 16.7585 99.1299 16.436H101.796C101.523 17.391 100.951 18.1723 100.081 18.78C99.2107 19.3753 98.1914 19.673 97.0228 19.673ZM96.9669 12.0271C96.3826 12.0271 95.8916 12.1822 95.4938 12.4922C95.1085 12.7899 94.8536 13.2053 94.7293 13.7386H99.1112C98.9745 13.1557 98.701 12.7279 98.2908 12.455C97.893 12.1698 97.4517 12.0271 96.9669 12.0271Z" fill="#9142FF"/>
<path d="M108.058 19.673C106.628 19.673 105.453 19.2141 104.534 18.2963C103.626 17.3786 103.172 16.2128 103.172 14.799C103.172 13.41 103.632 12.2566 104.552 11.3388C105.485 10.4211 106.659 9.96222 108.076 9.96222C109.506 9.96222 110.693 10.4521 111.638 11.4318C112.583 12.3992 113.018 13.7262 112.943 15.4129H105.671C105.721 15.9958 105.963 16.4857 106.398 16.8825C106.833 17.267 107.43 17.4592 108.188 17.4592C108.648 17.4592 109.052 17.3724 109.4 17.1988C109.761 17.0127 110.016 16.7585 110.165 16.436H112.831C112.558 17.391 111.986 18.1723 111.116 18.78C110.246 19.3753 109.226 19.673 108.058 19.673ZM108.002 12.0271C107.418 12.0271 106.927 12.1822 106.529 12.4922C106.143 12.7899 105.889 13.2053 105.764 13.7386H110.146C110.009 13.1557 109.736 12.7279 109.326 12.455C108.928 12.1698 108.487 12.0271 108.002 12.0271Z" fill="#9142FF"/>
<path d="M114.229 19.4683V17.4778L118.592 12.4736H114.285V10.1669H121.892V12.176L117.529 17.1616H122.041V19.4683H114.229Z" fill="#9142FF"/>
<path d="M128.143 19.673C126.713 19.673 125.539 19.2141 124.619 18.2963C123.711 17.3786 123.257 16.2128 123.257 14.799C123.257 13.41 123.717 12.2566 124.637 11.3388C125.57 10.4211 126.744 9.96222 128.161 9.96222C129.591 9.96222 130.778 10.4521 131.723 11.4318C132.668 12.3992 133.103 13.7262 133.028 15.4129H125.756C125.806 15.9958 126.048 16.4857 126.483 16.8825C126.918 17.267 127.515 17.4592 128.273 17.4592C128.733 17.4592 129.137 17.3724 129.485 17.1988C129.846 17.0127 130.101 16.7585 130.25 16.436H132.916C132.643 17.391 132.071 18.1723 131.201 18.78C130.331 19.3753 129.311 19.673 128.143 19.673ZM128.087 12.0271C127.503 12.0271 127.012 12.1822 126.614 12.4922C126.228 12.7899 125.974 13.2053 125.849 13.7386H130.231C130.094 13.1557 129.821 12.7279 129.411 12.455C129.013 12.1698 128.572 12.0271 128.087 12.0271Z" fill="#9142FF"/>
</svg>
