<svg width="29" height="16" viewBox="0 0 29 16" fill="none" xmlns="http://www.w3.org/2000/svg">
<path d="M19.2862 10.7824C20.5843 10.7824 21.6042 10.5506 22.346 10.087C23.0878 9.6234 23.8295 8.95117 24.5713 8.07031H24.6409C24.7799 8.07031 24.8958 8.13985 24.9886 8.27894C25.1276 8.37166 25.1508 8.46438 25.0581 8.5571C23.0646 11.4778 21.4651 13.425 20.2597 14.3986C19.0544 15.3722 17.7099 15.859 16.2263 15.859C15.3918 15.859 14.5805 15.7662 13.7924 15.5808C13.0043 15.349 12.1002 15.0245 11.0803 14.6072C10.0603 14.19 9.13311 13.8654 8.29861 13.6336C7.51048 13.4018 6.6528 13.2859 5.72558 13.2859C4.61292 13.2859 3.75524 13.4482 3.15255 13.7727C2.59621 14.0972 2.06306 14.5145 1.55309 15.0245C1.04312 15.4881 0.695415 15.8126 0.509971 15.998H0.440429C0.347707 15.998 0.231805 15.9517 0.092722 15.859C5.8289e-08 15.7199 -0.0231805 15.604 0.0231804 15.5112C1.13584 13.6104 2.41077 11.9415 3.84796 10.5043C5.33151 9.02071 6.90778 8.27894 8.57678 8.27894C9.22583 8.27894 9.94443 8.39484 10.7326 8.62664C11.5671 8.85845 12.4016 9.11343 13.2361 9.3916C15.7396 10.3188 17.7563 10.7824 19.2862 10.7824Z" fill="#6C5FF9"/>
<path d="M22.8721 2.71212C24.1702 2.71212 25.1902 2.48031 25.9319 2.0167C26.6737 1.55309 27.4155 0.880858 28.1573 0H28.2268C28.3659 0 28.4818 0.0695413 28.5745 0.208624C28.7136 0.301346 28.7368 0.394068 28.644 0.48679C26.6505 3.40753 25.0511 5.35469 23.8457 6.32827C22.6403 7.30185 21.2958 7.78864 19.8123 7.78864C18.9778 7.78864 18.1665 7.69592 17.3783 7.51048C16.5902 7.27867 15.6862 6.95415 14.6662 6.5369C13.6463 6.11965 12.719 5.79512 11.8846 5.56332C11.0964 5.33151 10.2387 5.21561 9.31152 5.21561C8.19885 5.21561 7.34118 5.37787 6.73848 5.7024C6.18215 6.02693 5.649 6.44418 5.13903 6.95415C4.62906 7.41776 4.28135 7.74228 4.09591 7.92773H4.02637C3.93364 7.92773 3.81774 7.88137 3.67866 7.78864C3.58594 7.64956 3.56276 7.53366 3.60912 7.44094C4.72178 5.54014 5.99671 3.87114 7.4339 2.43395C8.91745 0.9504 10.4937 0.208624 12.1627 0.208624C12.8118 0.208624 13.5304 0.324526 14.3185 0.556331C15.153 0.788136 15.9875 1.04312 16.822 1.32129C19.3255 2.24851 21.3422 2.71212 22.8721 2.71212Z" fill="#6C5FF9"/>
</svg>
