<svg width="158" height="158" viewBox="0 0 158 158" fill="none" xmlns="http://www.w3.org/2000/svg">
<ellipse cx="78.9461" cy="79.0183" rx="63" ry="62.8899" transform="rotate(-17.34 78.9461 79.0183)" fill="white" fill-opacity="0.1"/>
<g filter="url(#filter0_f_38_454)">
<circle opacity="0.7" cx="99.9177" cy="71.8329" r="27.3611" transform="rotate(-7.28416 99.9177 71.8329)" fill="#FB65B0" stroke="url(#paint0_linear_38_454)" stroke-width="0.381757"/>
<path d="M84.9537 42.1116C100.696 40.0995 115.13 51.4968 117.186 67.5771C119.241 83.6574 108.138 98.3189 92.3955 100.331C76.6527 102.344 62.2179 90.9463 60.1624 74.8659C58.107 58.7856 69.2109 44.1239 84.9537 42.1116Z" fill="#9142FF" stroke="url(#paint1_linear_38_454)" stroke-width="0.381757"/>
<path d="M54.3287 52.9134C70.0702 50.9014 84.5167 62.3868 86.5863 78.5784C88.6558 94.7699 77.5627 109.519 61.8214 111.531C46.0799 113.543 31.6327 102.059 29.5629 85.8673C27.4933 69.6756 38.5871 54.9255 54.3287 52.9134Z" fill="#7258F4" stroke="url(#paint2_linear_38_454)" stroke-width="0.381757"/>
<path opacity="0.8" d="M53.9215 49.7239C69.6642 47.7118 84.0981 59.1091 86.1536 75.1894C88.209 91.2697 77.1059 105.931 61.3632 107.944C45.6205 109.956 31.1856 98.5586 29.1302 82.4783C27.0748 66.3979 38.1787 51.7362 53.9215 49.7239Z" fill="#E666FF" stroke="url(#paint3_linear_38_454)" stroke-width="0.381757"/>
</g>
<g filter="url(#filter1_i_38_454)">
<g clip-path="url(#clip0_38_454)">
<rect y="37.5533" width="125.784" height="125.784" rx="62.8919" transform="rotate(-17.34 0 37.5533)" fill="white" fill-opacity="0.03"/>
<g opacity="0.24" filter="url(#filter2_f_38_454)" style="mix-blend-mode:plus-lighter">
<path d="M40.9994 44.4444L62.9635 34.2848C67.3264 32.2667 71.4559 37.4735 68.4973 41.2622L46.1134 69.9262C45.6043 70.5781 45.2812 71.3558 45.1784 72.1766L40.8521 106.735C40.2113 111.854 32.9118 112.172 31.8277 107.129L26.4857 82.2759C26.3953 81.8557 26.3646 81.4248 26.3943 80.996L27.9283 58.8947C28.0038 57.8059 28.4657 56.7798 29.2306 56.0013L39.6548 45.3916C40.0422 44.9974 40.4977 44.6765 40.9994 44.4444Z" fill="white"/>
</g>
<foreignObject x="-39.6956" y="14.6262" width="210.998" height="145.133"><div xmlns="http://www.w3.org/1999/xhtml" style="backdrop-filter:blur(7.1px);clip-path:url(#bgblur_1_38_454_clip_path);height:100%;width:100%"></div></foreignObject><g filter="url(#filter3_f_38_454)" data-figma-bg-blur-radius="14.2014">
<path d="M49.6005 91.7009C26.4115 100.615 5.29442 82.7112 -3.32151 71.9795L-12.9728 105.98L84.6329 133.036L144.579 59.5907L110.94 41.349C109.836 58.34 111.567 71.6972 90.5904 71.7488C64.8219 71.8121 61.4238 87.1561 49.6005 91.7009Z" fill="url(#paint4_radial_38_454)" fill-opacity="0.27"/>
</g>
<foreignObject x="6.69042" y="20.9117" width="172.516" height="133.273"><div xmlns="http://www.w3.org/1999/xhtml" style="backdrop-filter:blur(7.1px);clip-path:url(#bgblur_2_38_454_clip_path);height:100%;width:100%"></div></foreignObject><g opacity="0.04" filter="url(#filter4_f_38_454)" data-figma-bg-blur-radius="14.2014" style="mix-blend-mode:plus-lighter">
<path d="M80.5236 104.596C61.0074 119.968 35.5406 109.11 24.1367 101.405L24.9707 136.739L126.212 133.724L161.76 45.8371L124.231 38.3581C128.201 54.9156 133.804 67.1638 113.781 73.4157C89.1834 81.0958 90.4744 96.7585 80.5236 104.596Z" fill="url(#paint5_radial_38_454)" fill-opacity="0.37"/>
</g>
</g>
<rect x="0.239093" y="37.6786" width="125.402" height="125.402" rx="62.701" transform="rotate(-17.34 0.239093 37.6786)" stroke="url(#paint6_linear_38_454)" stroke-opacity="0.67" stroke-width="0.381757"/>
</g>
<g filter="url(#filter5_f_38_454)">
<rect x="50.6387" y="63.4761" width="8.83732" height="25.1166" rx="4.41866" transform="rotate(-17.34 50.6387 63.4761)" fill="white"/>
<rect x="84.8252" y="52.8023" width="8.83732" height="25.1166" rx="4.41866" transform="rotate(-17.34 84.8252 52.8023)" fill="white"/>
</g>
<g filter="url(#filter6_i_38_454)" style="mix-blend-mode:plus-lighter">
<rect x="50.6387" y="63.4761" width="8.83732" height="25.1166" rx="4.41866" transform="rotate(-17.34 50.6387 63.4761)" fill="white"/>
</g>
<g filter="url(#filter7_i_38_454)" style="mix-blend-mode:plus-lighter">
<rect x="84.8252" y="52.8023" width="8.83732" height="25.1166" rx="4.41866" transform="rotate(-17.34 84.8252 52.8023)" fill="white"/>
</g>
<defs>
<filter id="filter0_f_38_454" x="13.1578" y="26.1535" width="129.852" height="101.335" filterUnits="userSpaceOnUse" color-interpolation-filters="sRGB">
<feFlood flood-opacity="0" result="BackgroundImageFix"/>
<feBlend mode="normal" in="SourceGraphic" in2="BackgroundImageFix" result="shape"/>
<feGaussianBlur stdDeviation="7.76876" result="effect1_foregroundBlur_38_454"/>
</filter>
<filter id="filter1_i_38_454" x="0" y="0.0640153" width="157.557" height="159.847" filterUnits="userSpaceOnUse" color-interpolation-filters="sRGB">
<feFlood flood-opacity="0" result="BackgroundImageFix"/>
<feBlend mode="normal" in="SourceGraphic" in2="BackgroundImageFix" result="shape"/>
<feColorMatrix in="SourceAlpha" type="matrix" values="0 0 0 0 0 0 0 0 0 0 0 0 0 0 0 0 0 0 127 0" result="hardAlpha"/>
<feOffset dy="2.29054"/>
<feGaussianBlur stdDeviation="6.10811"/>
<feComposite in2="hardAlpha" operator="arithmetic" k2="-1" k3="1"/>
<feColorMatrix type="matrix" values="0 0 0 0 1 0 0 0 0 1 0 0 0 0 1 0 0 0 0.97 0"/>
<feBlend mode="normal" in2="shape" result="effect1_innerShadow_38_454"/>
</filter>
<filter id="filter2_f_38_454" x="5.57705" y="13.0288" width="84.7268" height="118.525" filterUnits="userSpaceOnUse" color-interpolation-filters="sRGB">
<feFlood flood-opacity="0" result="BackgroundImageFix"/>
<feBlend mode="normal" in="SourceGraphic" in2="BackgroundImageFix" result="shape"/>
<feGaussianBlur stdDeviation="10.4029" result="effect1_foregroundBlur_38_454"/>
</filter>
<filter id="filter3_f_38_454" x="-39.6956" y="14.6262" width="210.998" height="145.133" filterUnits="userSpaceOnUse" color-interpolation-filters="sRGB">
<feFlood flood-opacity="0" result="BackgroundImageFix"/>
<feBlend mode="normal" in="SourceGraphic" in2="BackgroundImageFix" result="shape"/>
<feGaussianBlur stdDeviation="13.3615" result="effect1_foregroundBlur_38_454"/>
</filter>
<clipPath id="bgblur_1_38_454_clip_path" transform="translate(39.6956 -14.6262)"><path d="M49.6005 91.7009C26.4115 100.615 5.29442 82.7112 -3.32151 71.9795L-12.9728 105.98L84.6329 133.036L144.579 59.5907L110.94 41.349C109.836 58.34 111.567 71.6972 90.5904 71.7488C64.8219 71.8121 61.4238 87.1561 49.6005 91.7009Z"/>
</clipPath><filter id="filter4_f_38_454" x="6.69042" y="20.9117" width="172.516" height="133.273" filterUnits="userSpaceOnUse" color-interpolation-filters="sRGB">
<feFlood flood-opacity="0" result="BackgroundImageFix"/>
<feBlend mode="normal" in="SourceGraphic" in2="BackgroundImageFix" result="shape"/>
<feGaussianBlur stdDeviation="8.72315" result="effect1_foregroundBlur_38_454"/>
</filter>
<clipPath id="bgblur_2_38_454_clip_path" transform="translate(-6.69042 -20.9117)"><path d="M80.5236 104.596C61.0074 119.968 35.5406 109.11 24.1367 101.405L24.9707 136.739L126.212 133.724L161.76 45.8371L124.231 38.3581C128.201 54.9156 133.804 67.1638 113.781 73.4157C89.1834 81.0958 90.4744 96.7585 80.5236 104.596Z"/>
</clipPath><filter id="filter5_f_38_454" x="39.6031" y="39.1329" width="72.1796" height="59.3544" filterUnits="userSpaceOnUse" color-interpolation-filters="sRGB">
<feFlood flood-opacity="0" result="BackgroundImageFix"/>
<feBlend mode="normal" in="SourceGraphic" in2="BackgroundImageFix" result="shape"/>
<feGaussianBlur stdDeviation="6.07542" result="effect1_foregroundBlur_38_454"/>
</filter>
<filter id="filter6_i_38_454" x="51.7539" y="61.9576" width="13.6914" height="26.5881" filterUnits="userSpaceOnUse" color-interpolation-filters="sRGB">
<feFlood flood-opacity="0" result="BackgroundImageFix"/>
<feBlend mode="normal" in="SourceGraphic" in2="BackgroundImageFix" result="shape"/>
<feColorMatrix in="SourceAlpha" type="matrix" values="0 0 0 0 0 0 0 0 0 0 0 0 0 0 0 0 0 0 127 0" result="hardAlpha"/>
<feOffset dy="2.20924"/>
<feGaussianBlur stdDeviation="6.84865"/>
<feComposite in2="hardAlpha" operator="arithmetic" k2="-1" k3="1"/>
<feColorMatrix type="matrix" values="0 0 0 0 0.16719 0 0 0 0 0.0139914 0 0 0 0 0.381667 0 0 0 1 0"/>
<feBlend mode="normal" in2="shape" result="effect1_innerShadow_38_454"/>
</filter>
<filter id="filter7_i_38_454" x="85.9395" y="51.2837" width="13.6924" height="26.5881" filterUnits="userSpaceOnUse" color-interpolation-filters="sRGB">
<feFlood flood-opacity="0" result="BackgroundImageFix"/>
<feBlend mode="normal" in="SourceGraphic" in2="BackgroundImageFix" result="shape"/>
<feColorMatrix in="SourceAlpha" type="matrix" values="0 0 0 0 0 0 0 0 0 0 0 0 0 0 0 0 0 0 127 0" result="hardAlpha"/>
<feOffset dy="2.20924"/>
<feGaussianBlur stdDeviation="6.84865"/>
<feComposite in2="hardAlpha" operator="arithmetic" k2="-1" k3="1"/>
<feColorMatrix type="matrix" values="0 0 0 0 0.16719 0 0 0 0 0.0139914 0 0 0 0 0.381667 0 0 0 1 0"/>
<feBlend mode="normal" in2="shape" result="effect1_innerShadow_38_454"/>
</filter>
<linearGradient id="paint0_linear_38_454" x1="99.9177" y1="44.2809" x2="99.9177" y2="99.385" gradientUnits="userSpaceOnUse">
<stop stop-color="white"/>
<stop offset="1" stop-color="#9142FF"/>
</linearGradient>
<linearGradient id="paint1_linear_38_454" x1="84.9293" y1="41.9228" x2="92.4194" y2="100.52" gradientUnits="userSpaceOnUse">
<stop stop-color="white"/>
<stop offset="1" stop-color="#9142FF"/>
</linearGradient>
<linearGradient id="paint2_linear_38_454" x1="54.3043" y1="52.7245" x2="61.8453" y2="111.721" gradientUnits="userSpaceOnUse">
<stop stop-color="white"/>
<stop offset="1" stop-color="#9142FF"/>
</linearGradient>
<linearGradient id="paint3_linear_38_454" x1="53.8971" y1="49.5351" x2="61.3871" y2="108.133" gradientUnits="userSpaceOnUse">
<stop stop-color="white"/>
<stop offset="1" stop-color="#9142FF"/>
</linearGradient>
<radialGradient id="paint4_radial_38_454" cx="0" cy="0" r="1" gradientUnits="userSpaceOnUse" gradientTransform="translate(92.7234 129.582) rotate(-123.232) scale(55.7682 127.946)">
<stop stop-color="white"/>
<stop offset="1" stop-color="#FD8414"/>
</radialGradient>
<radialGradient id="paint5_radial_38_454" cx="0" cy="0" r="1" gradientUnits="userSpaceOnUse" gradientTransform="translate(112.609 115.775) rotate(51.4842) scale(22.7218 52.1294)">
<stop stop-color="white"/>
<stop offset="1" stop-color="white"/>
</radialGradient>
<linearGradient id="paint6_linear_38_454" x1="62.8919" y1="37.5533" x2="62.8919" y2="163.337" gradientUnits="userSpaceOnUse">
<stop stop-color="white"/>
<stop offset="1" stop-color="#9142FF"/>
</linearGradient>
<clipPath id="clip0_38_454">
<rect y="37.5533" width="125.784" height="125.784" rx="62.8919" transform="rotate(-17.34 0 37.5533)" fill="white"/>
</clipPath>
</defs>
</svg>
